<?xml version="1.0" encoding="UTF-8" standalone="no"?>
<svg
   xmlns:dc="http://purl.org/dc/elements/1.1/"
   xmlns:cc="http://creativecommons.org/ns#"
   xmlns:rdf="http://www.w3.org/1999/02/22-rdf-syntax-ns#"
   xmlns:svg="http://www.w3.org/2000/svg"
   xmlns="http://www.w3.org/2000/svg"
   xmlns:sodipodi="http://sodipodi.sourceforge.net/DTD/sodipodi-0.dtd"
   xmlns:inkscape="http://www.inkscape.org/namespaces/inkscape"
   version="1.1"
   id="Layer_1"
   x="0px"
   y="0px"
   viewBox="0 0 612 153"
   style="enable-background:new 0 0 612 153;"
   xml:space="preserve"
   sodipodi:docname="mstream-logo.svg"
   inkscape:version="1.0 (4035a4fb49, 2020-05-01)"
   inkscape:export-filename="C:\Users\docha\Downloads\Compressed\mstream\mStream-master\public\img\mstream-logo.png"
   inkscape:export-xdpi="96"
   inkscape:export-ydpi="96"><metadata
   id="metadata1503"><rdf:RDF><cc:Work
       rdf:about=""><dc:format>image/svg+xml</dc:format><dc:type
         rdf:resource="http://purl.org/dc/dcmitype/StillImage" /><dc:title></dc:title></cc:Work></rdf:RDF></metadata><defs
   id="defs1501"><rect
   x="340.57996"
   y="38.712154"
   width="236.6226"
   height="139.62473"
   id="rect2198" /><rect
   x="396.69083"
   y="13.484009"
   width="163.11301"
   height="104.39232"
   id="rect2187" />
	
	
	
	
	
	
	
	
	
</defs><sodipodi:namedview
   inkscape:pagecheckerboard="true"
   inkscape:document-rotation="0"
   pagecolor="#000000"
   bordercolor="#666666"
   borderopacity="1"
   objecttolerance="10"
   gridtolerance="10"
   guidetolerance="10"
   inkscape:pageopacity="0"
   inkscape:pageshadow="2"
   inkscape:window-width="1920"
   inkscape:window-height="986"
   id="namedview1499"
   showgrid="false"
   showguides="true"
   inkscape:guide-bbox="true"
   inkscape:zoom="0.81282618"
   inkscape:cx="512.58192"
   inkscape:cy="-38.780532"
   inkscape:window-x="-11"
   inkscape:window-y="-11"
   inkscape:window-maximized="1"
   inkscape:current-layer="Layer_1" />
<style
   type="text/css"
   id="style1476">
	.st0{fill-rule:evenodd;clip-rule:evenodd;fill:#264679;}
	.st1{fill-rule:evenodd;clip-rule:evenodd;fill:#6684B2;}
	.st2{fill-rule:evenodd;clip-rule:evenodd;fill:#26477B;}
</style>

<g
   transform="matrix(1.0462915,0,0,1,-0.04873893,0)"
   id="g2433"><g
     transform="matrix(0.41674743,0,0,0.43686299,438.67804,0.58694707)"
     id="g5207"><g
       id="g5205"><path
         d="m 67.126,0.48 c -0.002,0 -0.004,0 -0.006,0 C 30.609,0.655 1.055,30.209 0.88,66.72 c 0,2.828 2.292,5.12 5.12,5.12 2.828,0 5.12,-2.292 5.12,-5.12 0,-30.928 25.072,-56 56,-56 2.828,0.002 5.121,-2.289 5.123,-5.117 C 72.245,2.775 69.954,0.482 67.126,0.48 Z"
         id="path5203" /></g></g><g
     transform="matrix(0.41674743,0,0,0.43686299,438.67804,0.58694707)"
     id="g5213"><g
       id="g5211"><path
         d="m 286.16,0 c -2.828,-0.002 -5.121,2.289 -5.123,5.117 -0.002,2.828 2.289,5.121 5.117,5.123 0.002,0 0.004,0 0.006,0 l 0.24,0.24 c 30.928,0 56,25.072 56,56 -0.004,2.828 2.285,5.123 5.113,5.127 2.828,0.004 5.123,-2.285 5.127,-5.113 0,-0.005 0,-0.009 0,-0.014 C 352.596,29.782 322.858,0.044 286.16,0 Z"
         id="path5209" /></g></g><g
     transform="matrix(0.41674743,0,0,0.43686299,438.67804,0.58694707)"
     id="g5219"><g
       id="g5217"><path
         d="m 67.6,343.52 -0.24,-0.24 c -30.928,0 -56,-25.072 -56,-56 0.002,-2.828 -2.289,-5.121 -5.117,-5.123 -2.828,-0.002 -5.121,2.289 -5.123,5.117 0,0.002 0,0.004 0,0.006 0.044,36.698 29.782,66.436 66.48,66.48 2.828,-0.004 5.117,-2.299 5.113,-5.127 -0.004,-2.822 -2.291,-5.109 -5.113,-5.113 z"
         id="path5215" /></g></g><g
     transform="matrix(0.41674743,0,0,0.43686299,438.67804,0.58694707)"
     id="g5225"><g
       id="g5223"><path
         d="m 347.76,282 c -2.828,0 -5.12,2.292 -5.12,5.12 0,30.928 -25.072,56 -56,56 -2.828,0.004 -5.117,2.299 -5.113,5.127 0.004,2.822 2.291,5.109 5.113,5.113 36.542,-0.175 66.109,-29.778 66.24,-66.32 -0.044,-2.796 -2.323,-5.04 -5.12,-5.04 z"
         id="path5221" /></g></g><path
     style="stroke-width:0.301708"
     d="m 568.24287,32.996722 c 0.93576,-2.251862 0.81886,-4.831568 0.0561,-6.988217 0.25662,-2.428347 -0.20371,-4.910377 -1.965,-6.846234 -1.6398,-1.801882 -3.27931,-3.60479 -4.91802,-5.406991 -2.8818,-3.167537 -7.44744,-4.2506511 -10.34785,-0.235913 -13.17402,18.232922 -26.92764,35.647629 -41.16771,52.405865 -10.24062,-12.772696 -20.61006,-25.378087 -30.90379,-37.997846 -3.61275,-4.430418 -8.94716,-3.187634 -11.32877,1.937845 -3.39505,2.075903 -6.16158,4.820073 -8.48313,9.558464 -1.10541,2.257586 -1.06125,5.140169 -0.10231,7.453038 6.54091,15.7621 19.4095,29.782696 29.9717,42.656245 -1.4593,1.624356 -2.90818,3.264719 -4.39596,4.853479 -14.6835,15.676963 -24.57898,25.610533 -6.70397,42.435323 0.24116,0.22714 0.49083,0.18384 0.73697,0.31894 0.34397,0.21405 0.67465,0.36684 1.05806,0.4571 0.11951,0.009 0.23074,0.0372 0.34864,0.0277 0.37202,0.0476 0.73492,0.17811 1.11382,0.0912 9.7651,-2.23691 18.94976,-11.85817 27.30917,-22.493 7.85904,10.34243 16.24276,20.24294 25.52915,26.21575 2.21091,1.42233 4.88027,0.68366 6.62322,-1.1956 2.87456,0.34575 5.53057,-1.89944 6.89328,-5.1819 0.19719,-0.15103 0.3241,-0.23685 0.53768,-0.40224 4.23101,-3.2736 4.70549,-9.97445 1.67239,-14.66982 -6.84884,-10.60133 -14.14537,-20.697 -21.58856,-30.619906 13.87874,-16.868218 31.16832,-35.007648 40.05487,-56.373359 z"
     id="path6627" /><path
     class="st0"
     d="m 38.050779,46.466111 c -10.240493,0 -18.994463,2.467694 -26.261909,7.257922 -7.2674468,4.79023 -10.7360008,11.757836 -10.7360008,20.902818 0,7.112766 2.1472001,13.20942 6.2764311,17.999644 4.1292317,4.935397 9.4146467,8.419195 15.3607397,10.596565 6.111261,2.17738 12.057354,4.06445 18.168616,5.51602 6.111262,1.45159 11.231508,3.33865 15.360739,5.66119 4.129231,2.17738 6.276431,5.08054 6.276431,8.41919 0,6.96761 -7.267446,10.45141 -21.63717,10.45141 H 1.0528692 v 18.43511 H 40.858656 c 28.24394,0 42.283324,-9.72561 42.283324,-29.322 0,-2.758 -0.330338,-5.51601 -0.991015,-8.41919 -0.660676,-2.90316 -1.982031,-5.80634 -4.2944,-8.7095 -2.1472,-3.04833 -5.450585,-5.370873 -9.579816,-7.112773 -4.129231,-1.741901 -10.57083,-3.919274 -18.994462,-6.532131 L 34.747394,87.110479 c -1.156185,-0.290316 -2.807877,-1.016109 -4.789908,-1.887059 -2.1472,-1.01611 -3.633723,-1.887061 -4.624738,-2.758011 -0.991015,-0.870951 -1.816862,-2.032218 -2.642708,-3.338644 -0.825847,-1.306427 -1.156185,-2.90317 -1.156185,-4.645072 0,-2.903169 1.651692,-5.080545 4.789908,-6.677289 3.138216,-1.596743 7.102277,-2.322535 11.561846,-2.322535 H 78.517243 V 46.466111 Z"
     id="path1478"
     style="fill:#ffd42a;stroke:#264679;stroke-width:1.54841;stroke-opacity:1" /><path
     class="st0"
     d="M 90.788372,59.617666 C 80.547879,70.342503 75.427633,84.255807 75.427633,101.5025 c 0,15.50754 5.285415,28.11648 15.691078,37.97174 10.405659,9.85525 24.279869,14.63795 41.787809,14.63795 14.36972,0 26.92259,-3.91312 37.4934,-11.73935 l -13.87421,-12.89878 c -6.11126,3.04352 -14.03937,4.63774 -23.61919,4.63774 -10.736,0 -19.48996,-3.33339 -26.09673,-10.00017 -6.60677,-6.6668 -9.910157,-15.21768 -9.910157,-25.942523 0,-10.145113 3.138217,-18.695997 9.249477,-25.94251 6.27644,-7.246512 14.70007,-10.869769 25.60123,-10.869769 5.45059,0 10.07532,1.159443 13.54387,3.478327 3.46855,2.318884 5.28542,5.79721 5.28542,10.434976 0,7.246513 -1.98203,12.319072 -5.94609,15.362601 -3.96406,3.043538 -11.06634,4.637775 -21.30683,4.637775 h -11.06634 v 16.956833 h 9.41465 c 33.52935,0 50.3766,-12.319068 50.3766,-36.812277 0,-19.710514 -13.04836,-30.000562 -39.1451,-31.160003 -17.83827,-0.289861 -31.87766,4.782697 -42.118148,15.362606 z"
     id="path1484"
     style="fill:#ffd42a;stroke:#264679;stroke-width:1.54719;stroke-opacity:1" /><path
     sodipodi:nodetypes="cscsssccssssscc"
     style="clip-rule:evenodd;fill:#ffd42a;fill-rule:evenodd;stroke:#264679;stroke-width:1.99929;stroke-opacity:1"
     id="path1482-4"
     d="M 304.21638,-0.84810533 270.56134,80.495966 c -6.61276,15.983021 -11.5773,34.483574 -15.53626,37.880404 -2.19921,1.59414 -4.33697,1.94416 -6.48919,1.2869 -2.15224,-0.6573 -3.91021,-1.49135 -5.19793,-2.73892 -1.28775,-1.24759 -3.1054,-3.47421 -5.2866,-6.14614 l -43.4393,-60.871324 -12.21082,27.880626 38.42244,54.580478 c 4.1646,5.91599 12.30706,14.27461 15.00368,16.91824 2.69664,2.64363 6.13659,4.54846 10.36511,6.09986 4.22851,1.55141 8.30685,0.93971 12.40148,-1.30137 8.18923,-4.48212 16.40022,-16.67955 26.74456,-42.41565 L 328.25037,2.387174 Z"
     class="st0" /><path
     style="clip-rule:evenodd;fill:#ffd42a;fill-rule:evenodd;stroke:#264679;stroke-width:1.58499;stroke-opacity:1"
     id="path1484-9"
     d="m 297.30221,56.180016 c -10.2405,11.255213 -15.36074,25.85657 -15.36074,43.956174 0,16.27443 5.28542,29.50691 15.69108,39.84955 10.40566,10.34262 24.27987,15.36184 41.78781,15.36184 14.36971,0 26.92257,-4.10663 37.4934,-12.3199 L 363.03955,129.491 c -6.11126,3.19404 -14.03937,4.86712 -23.61919,4.86712 -10.736,0 -19.48997,-3.49824 -26.09673,-10.49472 -6.60678,-6.99649 -9.91016,-15.97025 -9.91016,-27.225452 0,-10.64683 3.13822,-19.620579 9.24948,-27.225452 6.27643,-7.604874 14.70006,-11.407311 25.60122,-11.407311 5.4506,0 10.07534,1.216781 13.54387,3.650339 3.46856,2.433561 5.28542,6.083901 5.28542,10.951019 0,7.604875 -1.98204,12.928286 -5.9461,16.122335 -3.96404,3.194049 -11.06632,4.867126 -21.30682,4.867126 H 318.77421 V 111.3914 h 9.41464 c 33.52934,0 50.3766,-12.928283 50.3766,-38.632758 0,-20.685258 -13.04836,-31.484179 -39.14509,-32.700959 -17.83827,-0.304195 -31.87766,5.019216 -42.11815,16.122333 z"
     class="st0" /><path
     clip-path="none"
     style="clip-rule:evenodd;fill:#ffd42a;fill-rule:evenodd;stroke:#264679;stroke-width:1.63743;stroke-opacity:1"
     id="path1482-1"
     d="M 397.59443,156.59124 V 89.65862 c 0,-11.69696 1.48535,-19.494936 4.291,-23.556379 1.65039,-2.111952 3.63083,-3.574071 5.94136,-4.548819 2.31053,-0.974746 4.29098,-1.624577 5.94136,-1.787035 1.65038,-0.162458 4.12595,-0.162458 7.09664,-0.162458 h 24.4256 V 38.809333 h -20.13462 c -5.94136,0 -10.72747,0.162456 -14.19326,0.487373 -3.46579,0.324915 -7.42669,1.462121 -12.04777,3.249156 -4.62106,1.787036 -8.41693,4.548818 -11.71769,8.122889 -6.60151,7.148141 -9.90228,20.144765 -9.90228,38.989869 v 66.93262 z"
     class="st0" /><path
     class="st0"
     d="M 187.27832,151.62323 V 88.670364 c 0,-11.001467 1.48249,-18.335781 4.28278,-22.155734 1.64722,-1.986377 3.62389,-3.361561 5.92999,-4.27835 2.30612,-0.916789 4.2828,-1.527982 5.93002,-1.680782 1.64722,-0.152797 4.11806,-0.152797 7.08306,-0.152797 H 234.8831 V 40.844532 h -20.09614 c -5.93001,0 -10.70695,0.152799 -14.16613,0.458395 -3.45917,0.305596 -7.41251,1.375184 -12.02474,3.055964 -4.61223,1.680781 -8.40084,4.27835 -11.6953,7.63991 -6.58889,6.723121 -9.88334,18.946975 -9.88334,36.671563 v 62.952866 z"
     id="path1482"
     style="fill:#ffd42a;stroke:#264679;stroke-width:1.58648;stroke-opacity:1" /></g></svg>
