<?xml version="1.0" encoding="UTF-8"?>
<svg enable-background="new 0 0 218.6 220.5" version="1.1" viewBox="0 0 218.6 220.5" xml:space="preserve" xmlns="http://www.w3.org/2000/svg" xmlns:cc="http://creativecommons.org/ns#" xmlns:dc="http://purl.org/dc/elements/1.1/" xmlns:osb="http://www.openswatchbook.org/uri/2009/osb" xmlns:rdf="http://www.w3.org/1999/02/22-rdf-syntax-ns#"><metadata><rdf:RDF><cc:Work rdf:about=""><dc:format>image/svg+xml</dc:format><dc:type rdf:resource="http://purl.org/dc/dcmitype/StillImage"/><dc:title/></cc:Work></rdf:RDF></metadata><style type="text/css">
	.st0{fill-rule:evenodd;clip-rule:evenodd;fill:#6785B3;}
	.st1{fill-rule:evenodd;clip-rule:evenodd;fill:#26487C;}
</style><g transform="matrix(1.4851 0 0 1.3825 -652.13 5.0229)" stroke="#fc0"><g stroke-width="5.0827"><g transform="matrix(.41675 0 0 .43686 438.68 .58695)"><g stroke="#fc0" stroke-width="5.0827"><path d="m67.126 0.48h-6e-3c-36.511 0.175-66.065 29.729-66.24 66.24 0 2.828 2.292 5.12 5.12 5.12s5.12-2.292 5.12-5.12c0-30.928 25.072-56 56-56 2.828 2e-3 5.121-2.289 5.123-5.117s-2.289-5.121-5.117-5.123z" stroke="#fc0" stroke-width="5.0827"/></g></g><g transform="matrix(.41675 0 0 .43686 438.68 .58695)"><g stroke="#fc0" stroke-width="5.0827"><path d="m286.16 0c-2.828-2e-3 -5.121 2.289-5.123 5.117s2.289 5.121 5.117 5.123h6e-3l0.24 0.24c30.928 0 56 25.072 56 56-4e-3 2.828 2.285 5.123 5.113 5.127s5.123-2.285 5.127-5.113v-0.014c-0.044-36.698-29.782-66.436-66.48-66.48z" stroke="#fc0" stroke-width="5.0827"/></g></g><g transform="matrix(.41675 0 0 .43686 438.68 .58695)"><g stroke="#fc0" stroke-width="5.0827"><path d="m67.6 343.52-0.24-0.24c-30.928 0-56-25.072-56-56 2e-3 -2.828-2.289-5.121-5.117-5.123s-5.121 2.289-5.123 5.117v6e-3c0.044 36.698 29.782 66.436 66.48 66.48 2.828-4e-3 5.117-2.299 5.113-5.127-4e-3 -2.822-2.291-5.109-5.113-5.113z" stroke="#fc0" stroke-width="5.0827"/></g></g><g transform="matrix(.41675 0 0 .43686 438.68 .58695)"><g stroke="#fc0" stroke-width="5.0827"><path d="m347.76 282c-2.828 0-5.12 2.292-5.12 5.12 0 30.928-25.072 56-56 56-2.828 4e-3 -5.117 2.299-5.113 5.127 4e-3 2.822 2.291 5.109 5.113 5.113 36.542-0.175 66.109-29.778 66.24-66.32-0.044-2.796-2.323-5.04-5.12-5.04z" stroke="#fc0" stroke-width="5.0827"/></g></g></g><path d="m568.24 32.997c0.93576-2.2519 0.81886-4.8316 0.0561-6.9882 0.25662-2.4283-0.20371-4.9104-1.965-6.8462-1.6398-1.8019-3.2793-3.6048-4.918-5.407-2.8818-3.1675-7.4474-4.2507-10.348-0.23591-13.174 18.233-26.928 35.648-41.168 52.406-10.241-12.773-20.61-25.378-30.904-37.998-3.6128-4.4304-8.9472-3.1876-11.329 1.9378-3.395 2.0759-6.1616 4.8201-8.4831 9.5585-1.1054 2.2576-1.0612 5.1402-0.10231 7.453 6.5409 15.762 19.41 29.783 29.972 42.656-1.4593 1.6244-2.9082 3.2647-4.396 4.8535-14.684 15.677-24.579 25.611-6.704 42.435 0.24116 0.22714 0.49083 0.18384 0.73697 0.31894 0.34397 0.21405 0.67465 0.36684 1.0581 0.4571 0.11951 9e-3 0.23074 0.0372 0.34864 0.0277 0.37202 0.0476 0.73492 0.17811 1.1138 0.0912 9.7651-2.2369 18.95-11.858 27.309-22.493 7.859 10.342 16.243 20.243 25.529 26.216 2.2109 1.4223 4.8803 0.68366 6.6232-1.1956 2.8746 0.34575 5.5306-1.8994 6.8933-5.1819 0.19719-0.15103 0.3241-0.23685 0.53768-0.40224 4.231-3.2736 4.7055-9.9744 1.6724-14.67-6.8488-10.601-14.145-20.697-21.589-30.62 13.879-16.868 31.168-35.008 40.055-56.373z" stroke-width="2.1687"/></g></svg>
